<?xml version="1.0" encoding="utf-8"?>
<svg width="65" height="45" viewBox="0 0 65 45" fill="none" xmlns="http://www.w3.org/2000/svg">
<path d="M54.4312 23.5362C54.2389 27.1363 53.1587 30.7267 51.3192 33.8297C48.2382 39.0281 43.0765 43.0884 36.5155 44.3195C33.2399 44.9075 30.8577 44.8331 28.1822 44.4227C26.2522 43.9928 25.0372 42.4249 26.3331 40.5616C27.921 38.2771 30.1716 36.7764 32.4181 35.275C38.9708 30.8962 45.9309 27.2362 52.9555 23.6895C53.7411 23.2936 54.4863 22.5103 54.4312 23.5362Z" fill="#A13974"/>
<path d="M59.093 14.8384C60.7433 13.533 62.3375 12.1536 63.4666 10.357L63.4685 10.3556L63.4704 10.3543C64.7132 8.37574 64.1093 6.96967 61.8328 6.42817C59.2152 5.80519 56.1283 6.37221 53.5632 6.79403C52.3268 6.99735 52.2232 7.76175 52.4466 8.28284C52.521 8.43172 52.5954 8.5806 53.0421 8.65504C54.2332 8.72948 55.6567 8.36194 56.5922 8.77726C59.2581 9.9608 54.7207 13.0324 53.7619 13.7952C53.1868 14.2521 52.9112 14.1972 52.5879 13.4779C50.0509 7.83763 45.9194 3.83829 40.1463 1.56753C36.5277 0.144943 32.8001 -0.18073 28.9489 0.305991C26.8736 0.568174 25.2455 1.13817 23.3388 1.88096C22.71 2.12591 21.8782 2.54316 21.2997 2.87559C19.9438 3.65329 18.6958 4.52555 17.56 5.49728C16.5707 6.34365 17.1518 7.85885 18.4481 7.98055L42.3152 10.2213C43.3742 10.3207 43.8977 11.5578 43.2317 12.3871L29.92 28.9616C29.4358 29.5645 30.0541 30.4097 30.7719 30.1224C36.1874 27.949 41.4521 25.4602 46.6648 22.8392C51.0119 20.6534 55.2873 17.8487 59.093 14.8384Z" fill="#FB5B62"/>
<path fill-rule="evenodd" clip-rule="evenodd" d="M34.2992 16.5911C35.1488 15.6809 34.4004 14.2058 33.164 14.3539L11.5444 16.9431C10.8904 17.0214 10.3463 17.4927 10.2143 18.1379C9.38283 22.202 9.71452 26.295 11.2789 30.3916C11.8646 31.9264 11.9014 31.9706 10.32 32.165C10.1138 32.1904 9.9072 32.2184 9.70025 32.2464C8.50803 32.408 7.30458 32.5712 6.10503 32.2306C3.20538 31.4046 7.66517 28.6579 8.0019 27.4843C8.25057 26.6176 7.07251 26.2929 6.33597 26.8131C3.97584 28.4799 1.72889 30.4249 0.335562 32.9971C0.0378197 33.5926 0.0746477 34.337 0.18667 34.7396C1.01167 37.7039 7.39901 36.8681 9.50337 36.4901C12.2608 35.9951 14.2518 35.5177 16.9309 34.6991C17.6615 34.4758 17.6751 34.5502 18.7913 33.4001C24.4472 28.1502 29.623 21.4389 34.2992 16.5911Z" fill="#EFA16D"/>
</svg>
