<svg width="484" height="363" viewBox="0 0 484 363" fill="none" xmlns="http://www.w3.org/2000/svg">
<circle cx="228" cy="35" r="9.5" fill="#6B6D8C" stroke="#6B6D8C"/>
<circle cx="68" cy="90" r="10" fill="#6B6D8C"/>
<circle cx="10" cy="35" r="10" fill="#6B6D8C"/>
<circle cx="329" cy="13" r="10" fill="#842743"/>
<circle cx="223" cy="283" r="10" fill="#842743"/>
<circle cx="10" cy="268" r="10" fill="#6B6D8C"/>
<circle cx="322" cy="353" r="9.5" fill="#6B6D8C" stroke="#6B6D8C"/>
<circle cx="474" cy="263" r="9.5" fill="#6B6D8C" stroke="#6B6D8C"/>
<circle cx="68" cy="5" r="5" fill="#A3A5C3"/>
<circle cx="117" cy="32" r="5" fill="#A3A5C3"/>
<circle cx="402" cy="268" r="5" fill="#A3A5C3"/>
<circle cx="453" cy="334" r="5" fill="#A3A5C3"/>
<circle cx="287" cy="102" r="5" fill="#A3A5C3"/>
<circle cx="173" cy="86" r="5" fill="#A3A5C3"/>
<circle cx="384" cy="85" r="5" fill="#A3A5C3"/>
<circle cx="365" cy="194" r="5" fill="#842743"/>
<circle cx="344" cy="110" r="5" fill="#842743"/>
<circle cx="309" cy="280" r="5" fill="#842743"/>
<circle cx="141" cy="89" r="5" fill="#A3A5C3"/>
<circle cx="97" cy="268" r="5" fill="#A3A5C3"/>
<circle cx="68" cy="177" r="5" fill="#A3A5C3"/>
<path d="M222 264.5L225.924 260.265L220.294 258.984L222 264.5ZM229.5 51L228.327 56.6531L233.809 54.8424L229.5 51ZM223.487 260.215C230.47 228.827 236.004 189.274 238.015 151.721C240.026 114.182 238.52 78.5788 231.388 55.1213L230.431 55.4122C237.51 78.6943 239.026 114.151 237.017 151.667C235.008 189.168 229.481 228.666 222.511 259.998L223.487 260.215Z" fill="#A3A5C3"/>
<path d="M337 354L342.407 356.025L341.457 350.331L337 354ZM445 336L439.593 333.975L440.543 339.669L445 336ZM341.521 353.753L440.643 337.233L440.479 336.247L341.357 352.767L341.521 353.753Z" fill="#A3A5C3"/>
<path d="M239 46L240.186 51.6504L244.486 47.798L239 46ZM282 94L280.814 88.3496L276.514 92.202L282 94ZM241.63 49.6854L278.625 90.9819L279.37 90.3146L242.375 49.0181L241.63 49.6854Z" fill="#A3A5C3"/>
<path d="M321 26L316.383 29.4668L321.694 31.7316L321 26ZM292 94L296.617 90.5332L291.306 88.2684L292 94ZM318.775 29.9432L293.305 89.6646L294.225 90.0568L319.695 30.3354L318.775 29.9432Z" fill="#A3A5C3"/>
<path d="M233 270L237.283 266.129L231.789 264.355L233 270ZM283.524 111.846L233.906 265.564L234.858 265.871L284.476 112.154L283.524 111.846Z" fill="#6B6D8C"/>
<path d="M161 194L160.562 194.241L161 194ZM217 265L215.406 259.451L211.397 263.606L217 265ZM140.5 98.5C140 98.4912 140 98.4915 140 98.492C140 98.4925 140 98.4932 140 98.4941C140 98.496 140 98.4987 140 98.5022C140 98.5094 140 98.5199 139.999 98.5338C139.999 98.5616 139.998 98.603 139.998 98.6576C139.997 98.7667 139.995 98.9288 139.994 99.1416C139.992 99.5672 139.992 100.195 139.999 101.008C140.014 102.634 140.059 104.999 140.18 107.958C140.423 113.875 140.971 122.171 142.192 131.689C144.632 150.713 149.767 174.66 160.562 194.241L161.438 193.759C150.733 174.34 145.618 150.537 143.183 131.561C141.967 122.079 141.421 113.812 141.179 107.917C141.058 104.97 141.014 102.616 140.999 100.999C140.992 100.191 140.992 99.5676 140.994 99.1465C140.995 98.9359 140.997 98.776 140.998 98.669C140.998 98.6155 140.999 98.5752 140.999 98.5484C140.999 98.535 141 98.525 141 98.5184C141 98.5151 141 98.5126 141 98.511C141 98.5102 141 98.5097 141 98.5093C141 98.509 141 98.5088 140.5 98.5ZM160.562 194.241C178.122 226.094 204.325 253.273 213.41 262.232L214.113 261.52C205.046 252.579 178.927 225.482 161.438 193.759L160.562 194.241Z" fill="#6B6D8C"/>
<path d="M128.5 196L128.9 195.701L128.5 196ZM211 275L208.498 269.797L205.243 274.565L211 275ZM79 102.5C78.519 102.637 78.5191 102.637 78.5192 102.637C78.5193 102.638 78.5195 102.638 78.5197 102.639C78.5202 102.641 78.5208 102.643 78.5216 102.646C78.5232 102.651 78.5256 102.66 78.5288 102.671C78.5351 102.692 78.5445 102.725 78.5571 102.768C78.5822 102.854 78.6199 102.982 78.6706 103.15C78.772 103.487 78.9251 103.987 79.133 104.639C79.5487 105.944 80.1834 107.862 81.0604 110.317C82.8145 115.226 85.5381 122.286 89.4192 130.893C97.181 148.107 109.574 171.515 128.1 196.299L128.9 195.701C110.426 170.985 98.069 147.643 90.3308 130.482C86.4619 121.902 83.748 114.867 82.0021 109.98C81.1291 107.537 80.4982 105.63 80.0858 104.336C79.8796 103.688 79.728 103.194 79.6282 102.862C79.5783 102.696 79.5413 102.571 79.5169 102.487C79.5047 102.446 79.4956 102.414 79.4896 102.394C79.4867 102.383 79.4844 102.376 79.483 102.37C79.4823 102.368 79.4818 102.366 79.4814 102.365C79.4812 102.364 79.4811 102.364 79.481 102.364C79.481 102.363 79.481 102.363 79 102.5ZM128.1 196.299C158.823 237.403 195.393 264.731 206.998 272.873L207.572 272.055C196.008 263.941 159.534 236.683 128.9 195.701L128.1 196.299Z" fill="#6B6D8C"/>
<path d="M315 273L320.025 270.157L315.05 267.227L315 273ZM317.715 269.376L358.431 200.254L357.569 199.746L316.853 268.869L317.715 269.376Z" fill="#E189A1"/>
<path d="M364 203L359.987 207.15L365.588 208.551L364 203ZM330.477 339.12L363.393 207.487L362.423 207.244L329.507 338.878L330.477 339.12Z" fill="#6B6D8C"/>
<path d="M406 275L406.843 280.712L411.368 277.126L406 275ZM448.392 327.689L409.187 278.216L408.403 278.837L447.608 328.311L448.392 327.689Z" fill="#6B6D8C"/>
<path d="M369 202L368.536 207.755L373.752 205.279L369 202ZM397.452 260.786L371.381 205.851L370.478 206.28L396.548 261.214L397.452 260.786Z" fill="#6B6D8C"/>
<path d="M459 268L454 265.113L454 270.887L459 268ZM410 268.5L454.5 268.5L454.5 267.5L410 267.5L410 268.5Z" fill="#6B6D8C"/>
<path d="M312 289L309.742 294.314L315.473 293.612L312 289ZM318.496 337.939L313.043 293.406L312.051 293.527L317.504 338.061L318.496 337.939Z" fill="#6B6D8C"/>
<path d="M132 90L127 87.1132V92.8868L132 90ZM83 90.5H127.5V89.5H83V90.5Z" fill="#6B6D8C"/>
<path d="M113 38L107.61 40.0699L112.098 43.7026L113 38ZM79.3886 80.3146L110.557 41.8122L109.78 41.183L78.6114 79.6854L79.3886 80.3146Z" fill="#6B6D8C"/>
<path d="M111 27L107.711 22.2546L105.246 27.4753L111 27ZM74.7865 10.4521L106.717 25.5306L107.144 24.6263L75.2135 9.54788L74.7865 10.4521Z" fill="#6B6D8C"/>
<path d="M20 45L21.8013 50.4853L25.6511 46.1827L20 45ZM58.3334 78.6274L23.687 47.628L23.0202 48.3732L57.6666 79.3726L58.3334 78.6274Z" fill="#6B6D8C"/>
<path d="M335 346L340.45 344.095L336.075 340.327L335 346ZM397 274L391.55 275.905L395.925 279.673L397 274ZM338.315 342.916L394.443 277.736L393.685 277.084L337.557 342.264L338.315 342.916Z" fill="#A3A5C3"/>
<path d="M469 278L465.007 282.17L470.615 283.543L469 278ZM457.486 327.119L468.415 282.49L467.444 282.252L456.514 326.881L457.486 327.119Z" fill="#6B6D8C"/>
<path d="M244.002 31.0405L249.414 33.0506L248.449 27.3584L244.002 31.0405ZM314.916 18.507L248.355 29.7951L248.522 30.781L315.084 19.493L314.916 18.507Z" fill="#AAADB1"/>
<path d="M379 78L378.24 72.2768L373.663 75.797L379 78ZM338.604 26.3049L375.86 74.738L376.653 74.1283L339.396 25.6951L338.604 26.3049Z" fill="#6B6D8C"/>
<path d="M343 101L345.11 95.6257L339.4 96.4859L343 101ZM331.506 28.0745L341.835 96.6247L342.824 96.4757L332.494 27.9255L331.506 28.0745Z" fill="#E189A1"/>
<path d="M180 80L185.666 78.8903L181.872 74.5384L180 80ZM218.671 45.6231L183.063 76.666L183.721 77.4198L219.329 46.3769L218.671 45.6231Z" fill="#AAADB1"/>
<path d="M368 185L371.613 180.497L365.907 179.619L368 185ZM381.506 93.924L368.19 180.476L369.178 180.628L382.494 94.076L381.506 93.924Z" fill="#6B6D8C"/>
<path d="M361 185L362.725 179.49L357.091 180.751L361 185ZM345.512 118.109L359.529 180.718L360.505 180.499L346.488 117.891L345.512 118.109Z" fill="#E189A1"/>
<path d="M295 105L299.696 108.359L300.257 102.612L295 105ZM336.049 108.502L299.527 104.939L299.43 105.935L335.951 109.498L336.049 108.502Z" fill="#6B6D8C"/>
<path d="M68 13L65.1132 18H70.8868L68 13ZM68.5 75V17.5H67.5V75H68.5Z" fill="#6B6D8C"/>
<path d="M68 168L70.8868 163H65.1132L68 168ZM67.5 105V163.5H68.5V105H67.5Z" fill="#6B6D8C"/>
<path d="M238 280L243 282.887V277.113L238 280ZM300 279.5H242.5V280.5H300V279.5Z" fill="#E189A1"/>
<path d="M237 290L239.315 295.289L242.738 290.639L237 290ZM309.296 342.597L240.92 292.265L240.328 293.07L308.704 343.403L309.296 342.597Z" fill="#C4C4C4"/>
<path d="M134 83L130.459 78.4401L128.28 83.7869L134 83ZM25.8114 39.463L129.644 81.7652L130.021 80.8391L26.1886 38.537L25.8114 39.463Z" fill="#6B6D8C"/>
<path d="M87 268L82 265.113V270.887L87 268ZM25 268.5H82.5V267.5H25V268.5Z" fill="#6B6D8C"/>
<path d="M68 186L66.9891 191.684L72.4173 189.718L68 186ZM93.4701 254.83L70.003 190.061L69.0628 190.401L92.5299 255.17L93.4701 254.83Z" fill="#6B6D8C"/>
<path d="M63 170L63.7416 164.274L58.4122 166.495L63 170ZM13 50L12.2584 55.7257L17.5878 53.5051L13 50ZM61.7308 165.654L15.1923 53.9615L14.2692 54.3461L60.8077 166.038L61.7308 165.654Z" fill="#A3A5C3"/>
<path d="M20 255L25.0594 252.219L20.121 249.228L20 255ZM62.5723 183.741L21.9035 250.892L22.7588 251.41L63.4277 184.259L62.5723 183.741Z" fill="#6B6D8C"/>
<path d="M372 198L374.654 203.128L377.767 198.266L372 198ZM461.27 254.579L376.059 200.006L375.52 200.848L460.73 255.421L461.27 254.579Z" fill="#6B6D8C"/>
</svg>
